<?xml version="1.0" encoding="utf-8"?>
<!-- Generator: Adobe Illustrator 19.1.0, SVG Export Plug-In . SVG Version: 6.00 Build 0)  -->
<svg version="1.1" id="Layer_1" xmlns="http://www.w3.org/2000/svg" xmlns:xlink="http://www.w3.org/1999/xlink" x="0px" y="0px"
	 viewBox="-247 370.9 100 100" style="enable-background:new -247 370.9 100 100;" xml:space="preserve">
<style type="text/css">
	.st0{fill:#FF0000;}
</style>
<g transform="translate(0.000000,100.000000) scale(0.100000,-0.100000)">
	<path class="st0" d="M-2450-3208.9v-480h480h480v480v480h-480h-480V-3208.9z M-1500-3208.9v-470h-470h-470v470v470h470h470V-3208.9
		z"/>
	<path class="st0" d="M-2016-2863.9c-4-8-13-15-22-15c-19,0-92-76-92-96c0-8-4-14-10-14c-5,0-10-4-10-10c0-5,9-10,20-10
		c17,0,20-7,20-50c0-39-4-51-20-60c-11-6-24-8-29-5c-14,8-55-11-86-39c-26-24-26-26-9-48c20-27,81-61,95-53c5,4,18,3,29,0
		c19-6,20-15,20-136v-129l-35-34c-66-64-62-66,180-66c208,0,215,1,215,20c0,11-6,20-12,21c-7,0-23,13-36,29c-21,27-22,36-20,162
		l3,133l31-2c19-2,37,4,44,12s18,15,24,15s19,12,30,26c18,25,18,25-15,55c-34,30-75,47-86,35c-15-15-33,20-33,65c0,37,4,49,15,49
		s13,5,6,18c-5,9-17,33-27,53c-11,24-29,41-51,50c-19,7-39,19-45,26C-1937-2843.9-2009-2844.9-2016-2863.9z"/>
</g>
</svg>
